<?xml version="1.0" encoding="utf-8" ?>
<svg xmlns="http://www.w3.org/2000/svg" xmlns:xlink="http://www.w3.org/1999/xlink" width="1024" height="1024">
	<path fill="#FEFEFE" d="M0 0L1024 0L1024 1024L0 1024L0 0Z"/>
	<path fill="#8ABAE7" d="M869.726 406.573C865.489 405.915 859.363 404.988 855.993 402.231C850.404 397.657 856.422 390.481 855.526 384.828C854.265 376.876 844.099 378.434 839.122 374.814C837.714 373.789 836.623 372.492 836.487 370.706C836.417 369.781 836.401 370.058 837.004 369.374C838.733 370.312 839.969 372.409 841.2 373.944C845.628 375.14 850.24 376.103 854.036 378.823C862.446 384.849 854.544 389.202 855.72 396.228C856.219 399.212 858.07 400.753 860.449 402.38C864.685 402.557 867.798 403.06 871.659 405.01C873.978 406.573 876.035 408.129 876.675 411.002C877.769 415.908 872.293 423.444 877.301 426.871C884.213 431.601 895.231 427.869 897.547 438.947C898.02 441.212 898.2 443.444 897.273 445.599L896.229 446.478L895.686 446.111C895.534 444.825 895.499 443.651 895.518 442.356C895.559 439.644 895.19 437.626 893.228 435.656C886.82 429.222 872.688 433.932 872.805 423.357C872.855 418.752 876.59 412.322 872.892 408.403C872.051 407.512 870.853 406.992 869.726 406.573Z"/>
	<path fill="#8ABAE7" d="M137.374 642.814C140.403 643.809 149.783 653.034 152.941 655.772C142.078 668.736 130.575 681.236 119.462 693.992C115.609 692.579 107.435 684.023 104.002 680.854C115.603 668.586 125.245 654.611 137.374 642.814Z"/>
	<path fill="#FEFEFE" d="M136.915 645.705C141.965 647.468 146.934 652.223 150.558 656.067C147.202 660.724 142.557 664.984 138.702 669.286C132.242 676.492 126.021 683.988 119.907 691.489L119.453 691.794C116.84 691.428 109.102 682.795 106.814 680.509C117.478 669.724 127.362 657.49 136.915 645.705Z"/>
	<path fill="#8ABAE7" d="M917.249 677C923.187 673.393 951.34 658.857 956.888 658.11C958.067 659.011 957.957 659.854 958.288 661.249C958.6 667.375 962.234 701.078 960.34 703.898C957.019 703.603 946.042 695.836 943.075 693.533C940.096 695.143 936.984 703.174 935.32 706.355C933.034 700.059 931.438 693.533 929.12 687.237C924.718 684.951 918.497 683.821 914.735 680.743C913.839 680.01 913.811 679.977 913.676 678.786C914.575 677.611 915.897 677.405 917.249 677Z"/>
	<path fill="#FEFEFE" d="M932.296 688.708C935.242 689.627 937.859 690.721 940.6 692.138L937.936 697.808C937.301 698.923 937.161 699.47 936.006 700.077C933.587 698.4 932.916 691.654 932.296 688.708Z"/>
	<path fill="#FEFEFE" d="M956.355 662.488C957.404 674.971 958.528 687.524 959.017 700.041C954.738 698.552 947.258 692.781 943.989 692.49C943.181 691.529 943.262 691.136 943.041 689.935C947.559 680.884 951.258 671.242 956.355 662.488Z"/>
	<path fill="#FEFEFE" d="M917.307 678.331C929.475 673.021 941.049 666.237 953.487 661.634C950.314 671.445 944.668 680.229 941.421 690C938.486 689.361 918.603 680.877 916.799 679.11L917.307 678.331Z"/>
	<path fill="#F47A3E" d="M860.599 199.8C870.594 211.495 877.534 228.517 888.222 240.996C890.41 240.309 892.578 239.772 894.765 240.754C896.556 241.557 897.856 243.086 898.497 244.926Q898.625 245.301 898.716 245.687Q898.807 246.073 898.858 246.466Q898.91 246.86 898.922 247.256Q898.934 247.652 898.907 248.048Q898.88 248.444 898.813 248.834Q898.747 249.225 898.641 249.608Q898.536 249.99 898.394 250.36Q898.251 250.73 898.072 251.084C897.219 252.745 895.814 253.889 894.014 254.393C890.758 255.304 888.264 253.661 885.512 252.196C877.616 261.351 870.016 271.906 861.115 280.026C854.532 277.097 843.15 259.082 836.082 253.111C833.561 254.699 831.401 255.744 828.353 254.997C826.324 254.499 824.602 253.268 823.541 251.459C822.526 249.729 822.189 247.573 822.717 245.629C823.217 243.782 824.486 242.271 826.163 241.368C828.769 239.964 831.034 240.179 833.789 240.94C842.846 227.319 852.119 213.788 860.599 199.8Z"/>
	<path fill="#FEFEFE" d="M890.354 241.426L890.589 241.442C891.23 241.479 891.872 241.511 892.508 241.605C894.135 241.843 895.821 242.995 896.68 244.41C897.635 245.986 897.763 247.465 897.289 249.229C896.712 251.377 895.099 252.321 893.311 253.368C893.146 253.361 892.981 253.356 892.815 253.347C890.595 253.231 888.5 252.767 887.082 250.865C886.267 249.772 885.849 248.429 886.063 247.063C886.489 244.347 888.259 242.982 890.354 241.426Z"/>
	<path fill="#FEFEFE" d="M828.468 241.518C829.538 241.528 830.706 241.466 831.755 241.695C833.061 241.98 834.394 243.076 835.103 244.184C835.984 245.559 836.237 247.117 835.844 248.712C835.257 251.098 833.671 252.42 831.676 253.672C830.96 253.655 830.243 253.638 829.531 253.562C827.828 253.383 826.028 252.335 825.032 250.917C823.96 249.39 823.808 247.805 824.238 246.033C824.762 243.874 826.734 242.64 828.468 241.518Z"/>
	<path fill="#FEFEFE" d="M860.575 202.773C870.32 214.793 876.663 229.646 886.54 241.625C884.208 245.732 883.087 246.66 884.249 251.513C880.968 256.75 865.299 274.1 860.542 278.315C852.057 270.148 845.982 259.184 836.452 252.243C836.747 251.557 837.053 250.875 837.261 250.155C838.256 246.709 836.768 244.496 835.157 241.589C844.112 229.091 852.213 215.69 860.575 202.773Z"/>
	<path fill="#F47A3E" d="M129.005 475.685C132.738 475.026 135.107 475.848 138.356 477.681C139.462 479.851 140.563 481.983 141.407 484.273C140.961 486.697 139.514 491.13 140.901 493.294C146.327 494.548 151.877 495.909 155.088 500.958C156.129 502.596 156.594 504.354 156.165 506.276C155.399 509.701 152.1 513.371 149.15 515.111C147.97 515.806 146.755 516.448 145.543 517.085C147.118 520.49 148.374 523.623 149.255 527.28C147.781 530.908 146.23 534.812 142.32 536.424C139.606 537.542 136.155 537.069 133.551 535.851C131.97 535.112 130.439 534.166 128.93 533.287C127.905 537.431 127.29 541.156 123.365 543.593Q122.968 543.838 122.547 544.04Q122.126 544.241 121.687 544.398Q121.247 544.555 120.794 544.664Q120.34 544.774 119.877 544.836Q119.415 544.898 118.948 544.91Q118.482 544.923 118.017 544.887Q117.551 544.851 117.092 544.767Q116.634 544.682 116.186 544.55C113.422 543.716 111.611 541.657 110.337 539.146C109.591 537.677 109.116 536.19 108.934 534.555C107.864 534.621 108.187 534.522 107.317 534.821C103.909 535.993 100.919 536.836 97.3551 535.464C95.4987 534.749 94.0756 533.421 93.3274 531.57C91.5747 527.236 93.2894 523.467 95.103 519.567C91.4116 518.38 87.1507 516.9 85.1611 513.276C84.1957 511.518 84.2204 509.585 84.884 507.728C86.8085 502.341 92.48 500.25 97.2686 498.171C96.0433 493.435 93.1966 488.405 95.601 483.506C97.3889 479.863 101.345 478.421 104.952 477.275C109.245 478.261 110.926 480.538 114.599 482.635C119.477 485.42 123.836 477.314 128.493 475.84C128.663 475.786 128.834 475.736 129.005 475.685Z"/>
	<path fill="#FEFEFE" d="M129.113 477.013C131.779 476.861 134.076 476.921 136.134 478.842C137.734 480.335 138.413 482.27 139.205 484.248C138.747 487.373 137.721 491.315 139.766 494.101C143.079 498.612 155.062 494.155 153.895 506.837C153.706 508.881 152.673 510.497 151.028 511.686C149.225 512.989 144.748 514.425 144.385 516.779C143.439 522.915 151.575 526.794 143.433 533.284C141.703 534.662 139.465 535.527 137.234 535.238C133.682 534.778 132.633 530.939 128.833 531.666C125.669 534.552 124.835 543.759 119.531 543.781C117.014 543.792 113.992 541.218 112.534 539.341C111.166 537.58 110.789 535.21 110.303 533.087C106.87 530.8 102.96 534.769 99.1355 533.997C97.4089 533.649 95.4767 532.425 94.5545 530.885C92.2592 527.052 95.9735 523.999 96.7849 520.382C95.4151 516.218 89.5042 516.737 87.3132 513.162C86.2958 511.502 86.3864 509.022 86.9624 507.214C88.4473 502.555 93.2528 502.524 96.8688 500.443C101.588 497.728 94.8001 489.539 96.3807 484.944C97.1877 482.598 100.134 480.734 102.329 479.899C108.247 477.648 110.708 483.447 115.382 485.256C120.667 487.3 124.716 479.025 129.113 477.013Z"/>
	<path fill="#F47A3E" d="M904.791 542.589C907.205 543.596 909.681 545.011 912.286 544.084C916.365 538.296 910.986 529.273 922.465 527.147C925.173 526.645 927.413 526.846 929.644 528.557C932.715 530.912 934.32 534.599 936.81 537.459C941.362 534.397 946.086 531.064 951.919 532.308C953.834 532.716 955.387 533.918 956.43 535.553C960.799 542.401 956.202 550.621 957.795 553.626C960.544 558.812 972.142 555.708 968.808 568.017C968.074 570.727 966.461 572.683 963.98 573.993C961.158 575.482 956.913 575.699 955.668 578.926C956.503 584.538 959.122 587.796 955.009 593.078C953.357 595.201 950.944 596.242 948.298 596.414C942.806 596.771 939.252 593.486 935.485 590.067C933.231 592.37 931.094 595.78 928.569 597.624C927.724 598.256 926.791 598.798 925.757 599.048C913.518 602.017 915.13 587.849 911.399 586.072C908.157 584.527 903.677 587.362 900.056 584.59C898.224 583.188 897.513 581.157 897.309 578.926C896.983 575.365 897.5 571.994 900.296 569.53C901.014 568.898 901.913 568.343 902.427 567.516C903.09 566.448 903.014 564.972 902.587 563.848C902.502 563.624 902.384 563.414 902.282 563.197C900.882 562.323 899.447 561.378 898.322 560.156C896.775 558.476 895.595 555.694 895.695 553.394C895.811 550.726 897.103 548.642 899.016 546.877C900.708 544.976 902.63 543.861 904.791 542.589Z"/>
	<path fill="#FEFEFE" d="M900.745 547.705C902.336 546.359 903.452 545.747 905.587 545.946C908.003 546.171 911.676 547.313 913.627 545.392C918.338 540.756 911.74 529.443 924.121 528.572C925.996 528.44 927.695 528.953 929.063 530.281C931.647 532.79 932.79 538.997 937.222 538.652C942.605 538.233 946.262 530.4 952.276 534.491C954.396 535.934 956.717 538.538 957.157 541.138C957.952 545.835 952.921 552.135 957.326 555.805C960.696 558.613 966.912 559.147 967.558 564.365C967.792 566.258 967.393 568.702 966.158 570.206C962.938 574.128 953.238 573.144 953.43 579.265C953.563 583.511 957.338 586.657 953.956 590.744C952.364 592.668 949.859 594.666 947.268 594.834C941.855 595.186 936.785 585.523 932.161 590.405C929.965 592.724 929.1 595.659 926.478 597.642C924.927 597.816 923.582 597.824 922.039 597.537C913.77 596.001 917.6 589.654 913.72 585.147C911.303 582.338 907.763 584.642 904.697 584.344C903.093 584.189 901.772 583.615 900.828 582.259C894.845 573.671 904.079 571.78 905.124 565.55C904.927 563.855 903.824 562.996 902.691 561.841C900.839 559.809 899.131 557.803 898.629 555.015C898.129 552.24 899.25 549.952 900.745 547.705Z"/>
	<path fill="#010101" d="M306.485 304.143C306.774 278.074 305.498 251.718 306.618 225.686Q306.683 224.356 306.78 223.029Q306.878 221.701 307.007 220.376Q307.137 219.052 307.299 217.73Q307.461 216.409 307.655 215.092Q307.849 213.775 308.075 212.463Q308.301 211.151 308.559 209.845Q308.817 208.54 309.107 207.24Q309.397 205.941 309.718 204.649Q310.04 203.357 310.392 202.074Q310.745 200.79 311.129 199.516Q311.513 198.241 311.928 196.976Q312.343 195.711 312.788 194.457Q313.234 193.202 313.71 191.959Q314.186 190.716 314.692 189.485Q315.198 188.254 315.734 187.035Q316.27 185.817 316.835 184.612Q317.401 183.407 317.996 182.216Q318.59 181.025 319.214 179.849Q319.838 178.673 320.49 177.512Q321.142 176.351 321.822 175.207Q322.502 174.063 323.21 172.935Q323.918 171.808 324.653 170.698Q325.388 169.589 326.15 168.497Q326.912 167.405 327.7 166.333Q328.488 165.26 329.302 164.207Q330.117 163.154 330.956 162.121Q331.796 161.088 332.66 160.076Q333.525 159.063 334.414 158.072Q335.303 157.082 336.216 156.113Q337.129 155.144 338.065 154.197Q339.001 153.251 339.96 152.328Q340.919 151.405 341.9 150.505C356.697 137.132 376.186 128.392 395.762 125.034C412.773 122.117 431.257 123.592 448.501 123.579L538.821 123.555L677.781 123.496C700.853 123.486 726.149 122.55 748.986 123.676C750.261 137.564 749.118 153.149 749.175 167.266Q749.437 210.53 749.247 253.794C749.137 275.086 748.359 296.859 749.886 318.1C749.98 318.203 750.076 318.304 750.168 318.408C760.402 329.86 767.822 342.928 766.877 358.746C766.129 371.267 760.823 380.029 751.613 388.197L752.087 400.481C754.836 402.859 757.631 405.233 760.22 407.787C764.165 411.68 767.569 416.261 769.795 421.355C774.251 431.552 777.073 443.114 780.362 453.763Q789.564 482.996 798.048 512.445C800.687 521.639 805 531.817 805.821 541.341C806.256 546.384 805.824 551.593 805.705 556.655Q805.468 567.343 805.446 578.034C805.33 597.736 806.146 617.72 805.248 637.387C805.036 642.025 804.039 646.592 803.587 651.209C803.196 655.202 803.293 659.287 803.29 663.298C819.001 673.34 837.755 694.278 848.741 709.48C850.706 712.199 853.248 715.154 854.345 718.324C855.709 718.469 856.302 718.338 857.349 719.264C857.463 720.41 857.568 721.549 857.634 722.699C857.667 722.888 857.697 723.077 857.732 723.266C858.035 724.924 858.215 725.422 859.246 726.736C863.806 732.551 866.82 740.936 869.371 747.837C884.214 787.989 887.284 840.459 878.877 882.387C877.2 890.756 873.725 898.588 872.001 906.804C878.758 906.804 938.741 906.349 939.866 907.347C950.614 907.564 1004.78 906.306 1009.59 908.108L1009.74 908.933C1009.66 909.053 1009.58 909.185 1009.48 909.294C1008.43 910.435 1007 910.571 1005.55 910.532C979.604 909.827 953.592 910.198 927.635 910.255L801.119 910.3L245.991 910.346L97.5501 910.25L41.0565 910.316C33.9498 910.309 26.7676 910.652 19.6731 910.433C17.9864 910.38 16.5332 910.271 15.0443 909.449L14.995 908.618C16.3499 907.597 17.0311 907.621 18.7354 907.538C31.5 906.917 44.583 907.465 57.3805 907.466L137.634 907.359C138.967 906.219 145.37 906.797 147.346 906.809C144.204 890.958 140.231 875.67 138.99 859.477C134.367 799.139 154.08 762.004 191.209 716.994C196.301 710.821 201.187 704.453 206.496 698.465C213.787 690.241 221.93 682.956 229.088 674.599C231.231 654.6 232.232 634.418 233.782 614.362C236.141 583.833 238.776 553.291 240.697 522.732L243.999 472.425C244.641 463.835 244.896 455.014 246.372 446.53C247.674 439.04 250.177 432.099 254.071 425.566Q255.281 423.55 256.633 421.625Q257.985 419.7 259.471 417.877Q260.956 416.054 262.569 414.342Q264.182 412.63 265.912 411.038Q267.643 409.446 269.484 407.982Q271.324 406.517 273.264 405.188Q275.205 403.86 277.235 402.673Q279.266 401.486 281.376 400.448C284.183 399.039 290.966 397.186 292.727 394.903C290.51 393.056 285.856 392.444 283.03 391.3Q278.629 389.512 274.727 386.801C266.159 380.841 260.294 371.955 258.535 361.642Q258.334 360.497 258.189 359.344Q258.044 358.19 257.957 357.031Q257.869 355.872 257.839 354.71Q257.809 353.548 257.837 352.385Q257.864 351.223 257.949 350.064Q258.034 348.904 258.176 347.751Q258.318 346.597 258.517 345.452Q258.716 344.306 258.971 343.172Q259.226 342.038 259.537 340.918Q259.848 339.798 260.214 338.694Q260.58 337.591 261 336.507Q261.42 335.423 261.893 334.361Q262.366 333.299 262.891 332.262Q263.416 331.225 263.991 330.215Q264.567 329.205 265.192 328.225Q265.817 327.244 266.489 326.296C276.632 312.108 289.799 306.829 306.485 304.143Z"/>
	<path fill="#FEFEFE" d="M748.049 389.986L748.64 390.208C749.414 392.461 749.018 395.385 748.969 397.76L745.115 395.684C743.943 394.86 742.816 394.071 741.784 393.07L742.007 392.255C744.004 391.449 746.024 390.718 748.049 389.986Z"/>
	<path fill="#FEFEFE" d="M473.474 594.905C473.603 594.989 473.737 595.066 473.861 595.158C475.135 596.102 475.72 596.946 475.959 598.502C475.016 601.143 472.569 602.26 470.289 603.61C469.009 603.401 468.74 603.439 467.803 602.574C468.056 599.398 471.294 597.031 473.474 594.905Z"/>
	<path fill="#FEFEFE" d="M493.896 613.884C496.494 615.034 500.428 616.332 502.131 618.671C502.621 619.345 502.383 619.597 502.254 620.346C500.933 621.576 499.475 621.828 497.762 622.272C495.421 622.324 491.523 622.779 489.704 621.045C489.141 620.509 489.307 620.007 489.268 619.288C490.125 617.032 492.169 615.503 493.896 613.884Z"/>
	<path fill="#FEFEFE" d="M489.514 606.518C489.682 606.544 489.858 606.541 490.019 606.595C491.241 607.01 491.858 607.701 492.351 608.809C492.073 610.004 491.687 610.953 490.953 611.933C488.689 614.954 486.156 616.444 482.484 616.93C481.363 616.302 480.688 615.964 479.963 614.861C479.856 613.868 479.864 613.361 480.291 612.424C481.708 609.315 486.469 607.426 489.514 606.518Z"/>
	<path fill="#FEFEFE" d="M480.148 598.851C481.015 599.119 481.886 599.384 482.741 599.689C484.306 600.246 484.996 600.705 485.699 602.204C484.629 605.624 479.874 607.37 477.206 609.687C477.076 609.8 476.949 609.915 476.82 610.029C476.142 610.457 475.81 610.333 475.026 610.338C473.64 609.653 473.033 609.307 472.136 607.979C472.219 605.72 478.056 601.754 479.723 599.447L480.148 598.851Z"/>
	<path fill="#4666C8" d="M249.182 732.611C250.045 732.489 249.716 732.463 250.546 732.618C251.354 732.769 251.286 732.986 251.734 733.62C249.382 736.7 229.233 738.83 223.41 743.559C219.009 747.133 218.343 752.628 217.823 757.893L217.474 758.613L216.81 758.551C215.954 755.124 216.833 749.321 218.638 746.224C224.396 736.345 239.136 734.905 249.182 732.611Z"/>
	<path fill="#D8E4F2" d="M802.001 699.742C806.128 704.519 804.68 713.014 804.517 718.936L792.875 718.979C792.064 718.966 792.025 718.828 791.371 718.409C790.749 715.72 791.068 712.857 791.165 710.114C791.364 710.07 791.562 710.028 791.76 709.981L792.735 709.743C794.226 709.386 795.678 709.084 797.004 708.273C800.188 706.324 801.205 703.213 802.001 699.742Z"/>
	<path fill="#FEFEFE" d="M671.597 330.577C673.646 330.337 676.092 330.064 678.079 330.727C680.571 331.558 682.828 333.329 683.98 335.713Q684.167 336.099 684.312 336.502Q684.457 336.906 684.558 337.322Q684.66 337.738 684.717 338.163Q684.775 338.588 684.787 339.017Q684.799 339.445 684.766 339.872Q684.734 340.3 684.656 340.721Q684.578 341.143 684.457 341.554Q684.335 341.965 684.171 342.361C682.767 345.81 679.93 347.295 676.674 348.675C674.393 348.927 672.033 348.949 669.853 348.149C667.285 347.208 665.049 345.481 663.906 342.949Q663.752 342.606 663.633 342.249Q663.514 341.892 663.432 341.526Q663.349 341.159 663.303 340.786Q663.257 340.412 663.248 340.037Q663.24 339.661 663.268 339.286Q663.297 338.911 663.363 338.541Q663.429 338.17 663.532 337.809Q663.634 337.447 663.772 337.097C665.168 333.479 668.261 331.992 671.597 330.577Z"/>
	<path fill="#FEFEFE" d="M681.786 404.308C687.33 405.17 697.61 413.547 702.622 416.952C698.777 419.585 695.314 422.93 691.828 426.018C689.476 428.181 686.726 430.095 684.109 431.925C681.946 424.416 679.959 416.786 677.158 409.487C678.57 407.639 680.187 405.993 681.786 404.308Z"/>
	<path fill="#D8E4F2" d="M251.507 737.574L252.165 738.19C252.776 741.858 252.582 745.757 252.611 749.477C243.007 752.959 232.489 755.314 222.615 757.939L221.449 757.683C221.013 755.187 222.278 751.197 223.517 749.039C227.88 741.44 243.411 739.986 251.507 737.574Z"/>
	<path fill="#FEFEFE" d="M737.014 394.92C738.754 395.442 740.369 396.437 741.979 397.275C737.231 408.355 733.073 419.769 728.62 430.978C725.64 429.302 722.766 427.44 719.873 425.619Q714.247 421.289 708.399 417.263C718.191 410.185 727.171 401.981 737.014 394.92Z"/>
	<path fill="#4666C8" d="M296.719 814.368C297.741 816.204 309.529 879.29 309.264 880.333L306.754 879.11C301.769 876.033 296.437 873.35 291.297 870.528C293.007 851.854 294.441 832.975 296.719 814.368Z"/>
	<path fill="#FEFEFE" d="M501.241 553.172C511.462 552.274 520.612 555.6 530.603 555.676C536.107 555.718 541.362 554.362 546.666 553.06C548.819 558.254 559.252 584.109 558.908 588.028L557.875 588.513C554.545 589.844 551.253 591.062 547.808 592.064C543.971 588.102 540.591 583.696 536.739 579.735C530.088 572.895 522.017 566.812 514.171 561.388C511.87 559.796 509.492 558.204 506.992 556.937C504.915 555.885 502.615 555.19 500.745 553.789L501.241 553.172Z"/>
	<path fill="#D8E4F2" d="M803.29 663.298C819.001 673.34 837.755 694.278 848.741 709.48C850.706 712.199 853.248 715.154 854.345 718.324C849.732 719 844.62 718.665 839.956 718.669L814.986 718.663C814.995 712.096 816.073 702.876 812.618 697.131C810.253 693.2 806.794 691.772 802.567 690.762L803.29 663.298Z"/>
	<path fill="#F47A3E" d="M371.115 871.993C395.006 883.6 418.534 895.941 442.584 907.223Q414.466 907.019 386.348 907.099C378.459 907.077 369.314 908.008 361.572 906.691C357.596 906.015 354.055 903.64 350.226 902.455C354.792 899.848 369.071 877.451 371.115 871.993Z"/>
	<path fill="#F47A3E" d="M259.426 907.152C262.521 904.599 264.938 901.009 267.354 897.833C273.479 889.782 280.085 879.368 287.359 872.547C294.249 875.151 300.889 879.424 307.365 882.936C322.251 891.011 338.784 900.464 354.157 907.152C343.731 907.533 333.257 907.219 322.824 907.164C301.705 907.055 280.541 906.814 259.426 907.152Z"/>
	<path fill="#FEFEFE" d="M704.735 419.359C709.707 420.054 721.43 430.453 727.82 433.583C720.326 455.134 712.076 476.414 704.346 497.88L703.477 500.102L703.04 500.109C700.28 493.569 698.735 485.926 696.827 479.069L684.866 435.034C692.055 430.805 697.899 424.189 704.735 419.359Z"/>
	<path fill="#4666C8" d="M653.541 875.114C654.528 876.098 655.285 877.269 656.281 878.242C662.62 884.429 675.063 882.72 683.16 882.623Q682.972 894.87 682.975 907.118L619.861 907.003Q604.34 907.013 588.82 907.181C609.85 895.586 632.345 886.451 653.541 875.114Z"/>
	<path fill="#4666C8" d="M750.721 880.015C753.771 880.479 756.659 881.475 759.775 881.802C770.442 882.924 781.657 882.181 792.386 882.118C792.963 890.546 793.093 898.974 793.242 907.418C774.897 907.141 756.533 907.211 738.185 907.148L695.576 907.287C701.294 904.108 707.602 901.573 713.528 898.773C726.067 892.846 738.653 886.851 750.721 880.015Z"/>
	<path fill="#FEFEFE" d="M301.952 347.45C302.842 347.386 303.759 347.307 304.651 347.365C306.076 347.458 306.971 347.863 307.953 348.911C308.555 350.902 308.992 352.545 310.361 354.165C311.622 354.375 311.72 354.348 312.881 353.808L313.221 352.735C312.847 350.974 311.715 349.724 310.658 348.318Q327.306 347.838 343.96 348.044C343.961 354.8 345.031 364.019 340.791 369.738C337.677 373.937 333.436 374.793 328.599 375.54C326.224 374.321 323.47 372.378 320.912 371.759C319.819 371.495 320.275 371.442 319.345 371.987C319.363 372.145 319.366 372.304 319.399 372.459C319.859 374.599 321.829 375.601 323.516 376.708C323.418 383.285 322.646 390.826 324.229 397.227C325.494 399.536 327.532 400.459 329.071 402.417C329.793 403.337 329.886 404.921 329.549 406.001C329.07 407.536 327.734 408.513 326.344 409.164C319.944 412.161 311.635 411.056 305.23 408.503C301.821 407.144 297.43 404.869 296.063 401.208C295.437 399.531 295.591 397.887 296.388 396.31C297.963 394.954 300.486 395.038 302.483 394.824C302.745 384.77 302.666 374.714 302.972 364.654C304.044 364.661 305.184 364.701 306.244 364.534C307.555 364.327 308.888 364.017 309.718 362.983C306.16 361.056 302.049 360.845 299.147 357.654C298.156 356.565 297.449 355.194 297.657 353.679C298.02 351.029 299.885 348.951 301.952 347.45Z"/>
	<path fill="#FEFEFE" d="M694.102 337.592C697.612 337.323 701.031 337.24 704.413 338.373C708.471 339.732 711.827 342.343 714.296 345.827C723.761 359.177 711.699 371.136 717.817 383.1C720.768 388.87 727.469 391.123 733.207 393.015C726.11 401.107 714.546 408.882 705.733 415.249L692.578 406.852L684.677 401.808C692.076 394.71 692.1 388.181 693.383 378.66C690.845 376.848 688.001 375.554 685.219 374.162C690.643 374.615 695.594 375.289 700.216 371.776C702.169 370.291 702.947 368.7 703.306 366.319L702.701 365.678C701.5 365.814 698.303 370.686 693.53 371.781C690.154 372.556 686.808 372.153 683.867 370.27C677.659 366.295 675.888 358.693 674.598 351.951C685.951 349.079 682.826 347.552 688.737 339.7C689.845 338.228 692.359 337.973 694.102 337.592Z"/>
	<path fill="#FEFEFE" d="M767.249 645.927C778.312 645.638 789.447 645.829 800.512 645.955C800.398 657.006 800.034 668.069 799.764 679.118C799.61 685.418 799.948 692.302 798.848 698.512C798.462 700.689 797.903 703.488 796.23 705.073C792.307 708.789 779.723 706.515 774.712 706.119C768.958 705.796 763.114 705.359 757.419 704.466C758.613 700.431 764.039 688.882 762.829 685.288C762.571 685.154 762.345 684.904 762.055 684.886C761.99 684.882 757.578 690.453 754.356 691.263C753.44 691.01 753.082 690.949 752.561 690.063C751.868 688.886 751.73 686.981 752.017 685.667C753.128 680.567 756.145 675.053 758.152 670.191Q763.136 658.222 767.249 645.927Z"/>
	<path fill="#4666C8" d="M699.911 723.136L723.106 723.991C724.17 733.609 726.056 743.225 727.541 752.792L735.75 807.266C737.198 817.117 739.585 827.818 739.716 837.757L699.749 837.953L699.911 723.136Z"/>
	<path fill="#FEFEFE" d="M458.552 547.685C465.79 550.084 473.338 554.42 480.766 555.731C486.594 556.76 492.498 554.945 498.41 556.437C511.266 559.681 539.052 583.507 545.494 595.112C546.324 596.608 546.534 597.564 546.097 599.207C545.342 599.734 544.931 599.797 543.985 599.813C538.423 599.906 531.873 593.254 528.205 589.56C527.546 588.896 528.004 589.146 526.787 589.087L525.902 589.931C525.8 590.381 525.591 590.82 525.596 591.282C525.612 593.068 536.144 598.95 537.175 602.892C537.419 603.827 537.265 604.854 536.586 605.579C535.737 606.486 534.844 606.564 533.679 606.598C529.381 606.727 527.3 604.001 524.353 601.34C524.194 601.182 524.038 601.02 523.874 600.867C522.681 599.753 522.162 599.394 520.574 599.474L519.891 600.347C520.052 603.649 523.371 605.16 525.448 607.305C526.581 608.474 527.197 609.575 527.199 611.245C526.582 612.357 526.037 613.098 524.748 613.498C521.451 614.524 518.698 611.657 515.964 610.339C514.65 609.705 514.145 609.622 512.789 610.119L512.678 610.811C513.873 612.085 514.817 613.134 515.553 614.728C515.426 616.081 515.391 616.157 514.505 617.188C513.699 617.463 513.009 617.682 512.146 617.657C509.806 617.59 497.042 613.206 495.981 611.567C494.717 609.615 495.727 606.529 493.589 604.718C491.984 603.359 489.901 604.411 488.224 602.562C488.066 601.253 487.859 600.192 487.419 598.935C485.409 596.712 482.806 596.578 479.965 596.36C477.965 594.523 476.109 592.478 473.195 592.591C472.238 593.141 471.515 593.672 470.384 593.716C469.774 592.35 469.077 591.376 468.119 590.231C466.99 589.688 466.498 589.582 465.256 589.763C464.455 590.541 464.064 590.936 463.013 591.373C457.144 590.056 450.902 586.642 445.275 584.32C449.417 572.066 453.635 559.647 458.552 547.685Z"/>
	<path fill="#FEFEFE" d="M711.822 306.678C716.189 306.376 720.41 306.604 724.692 307.558C738.495 310.633 749.476 320.027 756.826 331.891C763.044 341.928 765.823 354.385 763.045 365.997C761.022 374.451 756.278 381.384 748.738 385.852C742.739 389.407 736.395 390.478 729.599 388.757Q727.778 387.876 726 386.909C711.742 379.011 723.974 364.227 719.869 351.203C717.971 345.183 713.777 339.668 708.024 336.899C701.238 333.633 694.709 334.415 687.861 336.764C685.702 332.681 683.213 330.214 679.506 327.599C680.66 325.226 681.942 323.067 683.57 320.991C690.726 311.864 700.637 308.105 711.822 306.678Z"/>
	<path fill="#D8E4F2" d="M693.523 706.847C702.485 706.982 711.455 706.935 720.418 706.964C721.455 711.47 721.854 716.262 722.499 720.846C714.007 721.176 705.517 720.497 697.021 720.803C696.354 735.441 696.924 750.346 696.948 765.011L696.75 840.786Q718.531 840.57 740.308 841.002C743.261 853.407 744.632 866.64 746.702 879.251L741.375 881.723C731.739 886.115 693.127 906.84 686.552 907.005C685.013 902.659 686.962 872.317 687.191 865.501C688.97 812.617 692.212 759.733 693.523 706.847Z"/>
	<path fill="#F47A3E" d="M317.284 306.2C317.467 306.176 317.649 306.147 317.833 306.129Q318.708 306.044 319.587 306.001Q320.465 305.958 321.344 305.956Q322.224 305.955 323.102 305.996Q323.98 306.037 324.856 306.119Q325.731 306.202 326.602 306.326Q327.472 306.45 328.336 306.616Q329.2 306.782 330.054 306.988Q330.909 307.195 331.753 307.442Q332.597 307.69 333.428 307.977Q334.259 308.264 335.076 308.591Q335.892 308.917 336.692 309.282Q337.492 309.647 338.274 310.05Q339.055 310.453 339.817 310.893Q340.578 311.332 341.318 311.808Q342.058 312.284 342.774 312.794Q343.49 313.304 344.181 313.848C354.639 322.105 358.717 332.091 360.207 344.978C345.308 345.606 330.08 345.765 315.173 345.405C311.184 345.308 307.228 344.697 303.239 344.591C300.954 344.529 298.994 345.409 297.382 347.04C295.716 348.726 294.936 350.955 294.957 353.309C294.996 357.666 296.936 360.424 299.848 363.458C299.927 369.094 299.877 374.738 299.882 380.375L299.796 392.085C290.636 391.32 281.797 389.025 274.48 383.19C266.765 377.036 262.204 368.151 261.203 358.387Q261.078 357.28 261.009 356.168Q260.94 355.056 260.925 353.942Q260.911 352.828 260.952 351.715Q260.993 350.601 261.09 349.492Q261.186 348.382 261.337 347.278Q261.488 346.174 261.694 345.079Q261.9 343.984 262.16 342.901Q262.419 341.818 262.733 340.748Q263.046 339.679 263.412 338.627Q263.777 337.575 264.195 336.542Q264.613 335.509 265.081 334.498Q265.549 333.487 266.067 332.501Q266.585 331.515 267.151 330.555Q267.718 329.596 268.331 328.665Q268.944 327.735 269.602 326.837Q270.261 325.938 270.963 325.073C283.163 310.324 299.303 307.939 317.284 306.2Z"/>
	<path fill="#D8E4F2" d="M306.651 727.98L329.996 727.979C331.421 737.088 331.971 746.516 332.843 755.703L337.407 804.27C340.373 835.972 344.534 867.944 345.546 899.763L340.278 897.1C331.218 892.414 322.303 887.402 313.281 882.633C309.675 866.516 306.676 850.205 303.425 834.009C301.602 824.925 298.696 814.898 298.265 805.662C297.823 796.176 299.925 785.664 300.977 776.212C302.761 760.179 304.125 743.901 306.651 727.98Z"/>
	<path fill="#FEFEFE" d="M333.417 727.97L379.459 727.967C377.397 775.981 372.533 823.965 371.115 871.993C369.071 877.451 354.792 899.848 350.226 902.455C349.201 901.308 349.071 900.65 348.876 899.133C347.9 891.554 347.635 883.726 347.029 876.1Q345.413 854.975 343.272 833.897L336.73 765.747C335.559 753.202 334 740.551 333.417 727.97Z"/>
	<path fill="#D8E4F2" d="M671.352 419.073C671.536 422.965 667.481 441.155 666.567 446.764Q658.458 497.995 649.588 549.099C639 554.544 627.777 558.801 616.888 563.607C598.777 571.599 580.818 579.78 562.49 587.275C561.45 584.18 560.317 581.11 559.227 578.032C556.292 568.945 553 560.013 549.67 551.066C557.653 546.202 567.152 542.938 575.731 539.165C588.247 533.661 600.589 527.813 613.162 522.423C625.392 502.264 636.669 481.089 647.814 460.295C655.255 446.412 662.455 432.089 671.352 419.073Z"/>
	<path fill="#FEFEFE" d="M254.874 728.32C270.735 726.993 287.664 727.803 303.64 727.909Q298.01 774.683 293.038 821.532L289.849 853.854C289.241 859.919 289.063 866.711 287.359 872.547C280.085 879.368 273.479 889.782 267.354 897.833C264.938 901.009 262.521 904.599 259.426 907.152L258.904 906.806C257.605 901.464 258.49 893.882 258.435 888.252L257.935 852.679Q257.049 790.484 254.874 728.32Z"/>
	<path fill="#4666C8" d="M791.411 721.516L854.753 721.504L854.927 836.94L854.647 837.372C851.396 838.554 802.069 837.657 794.412 837.637L791.411 721.516Z"/>
	<path fill="#D8E4F2" d="M857.634 722.699C857.667 722.888 857.697 723.077 857.732 723.266C858.035 724.924 858.215 725.422 859.246 726.736C863.806 732.551 866.82 740.936 869.371 747.837C884.214 787.989 887.284 840.459 878.877 882.387C877.2 890.756 873.725 898.588 872.001 906.804C878.758 906.804 938.741 906.349 939.866 907.347C924.236 908.188 908.091 907.421 892.403 907.418L796.179 907.431C796.032 885.173 794.479 862.941 794.434 840.696C815.462 840.506 836.524 841.305 857.543 840.727C858.056 826.58 857.69 812.304 857.706 798.138L857.634 722.699Z"/>
	<path fill="#D8E4F2" d="M229.088 674.599C228.171 692.514 226.686 710.407 225.66 728.318C234.622 728.359 244.314 727.236 253.15 728.418L252.355 728.685C240.151 732.716 222.204 732.673 215.688 745.499C213.22 750.358 213.17 755.47 213.176 760.768Q199.617 764.147 186.164 767.924C180.665 769.431 174.889 770.721 169.55 772.684C177.515 803.536 184.485 834.782 191.614 865.84C194.784 879.65 198.982 893.518 201.519 907.421L161.298 907.288C153.481 907.331 145.412 907.861 137.634 907.359C138.967 906.219 145.37 906.797 147.346 906.809C144.204 890.958 140.231 875.67 138.99 859.477C134.367 799.139 154.08 762.004 191.209 716.994C196.301 710.821 201.187 704.453 206.496 698.465C213.787 690.241 221.93 682.956 229.088 674.599Z"/>
	<path fill="#4666C8" d="M251.662 753.028C252.407 753.052 252.011 752.953 252.796 753.489Q255.088 830.46 255.565 907.464L204.669 907.242C203.32 900.111 201.492 893.081 199.75 886.039Q186.119 830.461 173.551 774.634Q212.869 764.78 251.662 753.028Z"/>
	<path fill="#FEFEFE" d="M650.514 576.508Q705.278 576.198 760.042 576.534C760.2 585.17 759.542 642.658 761.061 645.412C762.184 645.685 762.536 645.734 763.427 646.522C762.074 658.091 748.905 677.412 748.778 686.882C748.755 688.605 749.002 690.859 750.453 692.005C752.075 693.286 754.68 693.246 756.624 693.202L757.244 693.182L757.999 693.664L754.709 703.6C742.598 704.993 729.757 704.162 717.569 704.104L644.718 703.475L647.847 637.436Q649.652 606.993 650.514 576.508Z"/>
	<path fill="#FEFEFE" d="M376.742 470.852C376.901 470.703 377.063 470.55 377.254 470.445C378.136 469.958 378.986 470.043 379.959 470.039L574.147 469.946C584.166 469.953 635.168 469.084 638.904 470.546C629.747 486.953 619.741 503.266 611.265 520.005C597.138 525.929 583.216 532.389 569.245 538.67C559.637 542.99 543.707 551.864 533.734 552.687C524.234 553.47 515.16 549.675 505.645 550.042C501.218 550.212 496.94 551.473 492.628 552.383C483.135 554.387 474.128 550.704 465.474 547.126C461.191 545.356 457.651 542.494 453.62 540.276C449.633 538.081 445.165 536.44 440.944 534.741C428.216 529.618 415.277 524.928 402.43 520.108C395.879 517.651 389.028 515.509 382.785 512.344C379.875 498.832 378.737 484.559 376.742 470.852Z"/>
	<path fill="#D8E4F2" d="M744.393 399.151C749.927 401.771 755.319 406.553 759.448 411.03C762.847 414.715 765.689 418.694 767.649 423.326C771.135 431.561 773.367 440.676 776.012 449.233L790.31 495.909L798.822 524.435C800.277 529.392 802.407 534.854 802.854 539.989C803.978 552.881 802.746 566.621 802.619 579.582C802.413 600.71 802.809 621.863 802.019 642.98C789.193 643.514 776.154 643.002 763.306 642.949C762.736 620.485 763.218 597.927 763.029 575.447C762.951 566.167 763.939 555.057 761.8 546.016C760.807 541.821 759.163 537.721 757.918 533.59L748.945 503.624C745.917 493.662 742.732 480.219 739.154 470.842C738.661 469.55 738.196 468.841 736.995 468.082L736.409 468.329C735.781 471.793 750.512 518.828 752.458 525.584C754.863 533.398 758.022 541.648 759.219 549.718C760.365 557.444 759.906 565.712 759.947 573.528L650.739 573.539C651.041 566.241 651.218 558.825 652.117 551.574C653.508 540.364 655.966 529.187 657.88 518.046L663.629 482.832C667.511 459.779 670.362 436.202 675.476 413.417C678.343 421.628 680.349 430.208 682.691 438.588C687.746 456.679 692.552 474.817 697.837 492.845C699.007 496.837 699.758 501.082 701.072 504.995C701.447 506.112 701.779 506.899 702.771 507.597C704.071 506.894 704.64 505.177 705.195 503.833C708.057 496.897 710.249 489.694 712.881 482.668C723.307 454.831 732.983 426.603 744.393 399.151Z"/>
	<path fill="#FEFEFE" d="M507.681 619.743C517.851 623.509 513.636 618.441 519.441 616.758C521.748 616.089 524.711 616.641 526.868 615.647C528.445 614.921 529.12 614 529.701 612.444C530.235 611.012 530.394 610.172 531.737 609.333L532.441 609.421L533.404 609.526C534.483 609.653 535.35 609.827 536.409 609.399C538.578 608.522 539.157 605.667 539.876 603.656C541.129 602.917 541.797 602.989 543.224 603.024C545.016 603.068 546.184 603.203 547.676 601.941C549.937 600.028 549.725 597.544 549.911 594.835C556.817 591.738 564.38 590.116 571.424 587.118C597.421 576.053 623.129 564.188 649.042 552.896C648.252 559.482 648.248 566.296 647.984 572.925L646.575 606.876C645.269 634.806 643.081 662.747 642.45 690.701C635.932 691.697 628.359 690.877 621.74 690.782Q603.129 690.419 584.516 690.578C521.687 691.112 458.804 690.068 395.985 691.017C392.292 653.248 389.579 615.211 386.913 577.357C396.312 580.988 406.039 584.026 415.536 587.405C423.579 590.267 431.625 593.649 439.84 595.944C441.498 593.152 442.724 590.11 444.044 587.148C449.508 589.579 455.283 590.823 460.468 593.936L459.314 598.678C462.291 607.865 462.631 603.215 467.368 606.725C468.904 607.862 469.703 610.302 470.916 611.813C472.513 613.801 474.038 613.612 476.304 613.937C477.211 614.067 478.309 617.762 479.236 618.776C480.109 619.731 481.208 619.724 482.399 619.817C483.571 619.908 484.282 619.929 485.324 620.545C485.824 621.346 486.335 622.261 486.96 622.968C488.436 624.635 491.141 625.516 493.309 625.713C499.16 626.246 503.368 623.173 507.681 619.743Z"/>
	<path fill="#F47A3E" d="M291.086 399.014C291.693 399.491 291.531 399.253 291.859 399.915C292.633 401.473 293.377 402.984 294.353 404.434C297.719 409.434 305.934 412.291 311.643 413.278C318.825 414.52 325.29 413.539 331.303 409.293C332.02 407.643 332.579 405.904 333.191 404.212C338.053 406.243 342.785 409.005 346.991 412.175C368.285 428.222 370.341 447.446 373.868 471.751Q376.542 489.635 379.035 507.545Q357.579 484.737 336.532 461.551C327.413 451.436 318.537 440.718 308.817 431.197L307.761 431.22L306.963 432.213L307.115 433.173C312.229 440.49 321.152 448.656 327.375 455.631L354.99 486.093C362.396 494.362 369.621 503.018 377.414 510.914C379.368 512.893 381.504 514.581 383.95 515.927C391.565 520.117 400.512 522.629 408.667 525.672C424.586 531.612 440.505 537.452 455.896 544.669C455.062 549.467 452.623 554.399 450.993 559.001Q445.167 575.97 438.588 592.662C422.331 587.526 406.32 581.034 390.254 575.271C375.71 570.054 360.674 565.475 346.399 559.591C343.6 558.437 340.489 557.065 338.132 555.14C332.299 550.379 327.345 543.171 322.542 537.367Q306.671 518.247 291.217 498.788C288.513 495.388 285.436 490.591 282.055 487.959C281.175 487.273 280.941 487.411 279.89 487.528L279.447 488.18C279.563 488.809 279.536 488.824 279.836 489.514C281.267 492.805 285.134 496.052 287.421 498.929C301.725 516.93 316.175 535.716 331.571 552.766C333.413 554.805 335.428 556.937 337.733 558.442C346.658 564.272 372.999 572.507 384.003 576.507C387.378 625.968 392.366 675.357 395.19 724.845L228.75 725.405C229.512 709.756 230.973 694.079 232.116 678.448L240.363 569.695L244.973 504.085L247.312 470.882C248.176 459.259 248.174 446.447 252.534 435.492C259.762 417.331 273.584 406.471 291.086 399.014Z"/>
	<path fill="#D8E4F2" d="M395.985 691.017C458.804 690.068 521.687 691.112 584.516 690.578Q603.129 690.419 621.74 690.782C628.359 690.877 635.932 691.697 642.45 690.701C642.133 694.322 641.634 698.15 641.952 701.774C642.372 706.55 643.713 711.188 644.064 715.996C645.015 728.994 645.658 742.033 646.408 755.045L650.38 833.969C650.993 846.731 651.215 859.658 652.322 872.381L611.275 892.58C602.058 897.09 591.968 901.359 583.534 907.225C552.108 907.502 520.635 907.09 489.204 907.034C479.982 907.017 457.373 908.271 449.828 906.552C442.261 904.829 431.996 898.711 424.86 895.254C407.962 887.066 390.606 879.041 374.202 869.923L380.249 765.562C380.972 753.026 382.154 740.391 382.532 727.848C387.844 727.755 393.273 727.896 398.561 727.392C398.037 715.259 396.796 703.137 395.985 691.017Z"/>
	<path fill="#FEFEFE" d="M309.546 304.001C309.38 279.569 308.668 254.976 309.209 230.561C309.846 201.794 321.079 174.446 342.065 154.495C356.284 140.977 375.453 131.384 394.765 127.924C410.698 125.07 427.965 126.365 444.155 126.383L515.181 126.353L675.972 126.282C699.352 126.321 722.798 125.843 746.168 126.409C746.687 141.231 746.348 156.179 746.368 171.012C746.432 218.965 745.193 267.136 746.469 315.053Q744.3 313.267 741.931 311.756Q739.563 310.245 737.029 309.031C725.367 303.372 711.412 302.234 699.129 306.553C688.514 310.285 681.542 317.244 676.752 327.276C674.104 327.651 671.292 327.989 668.807 329.01C665.351 330.43 662.182 333.083 660.921 336.685Q660.747 337.17 660.625 337.67Q660.502 338.171 660.433 338.681Q660.363 339.191 660.346 339.706Q660.329 340.221 660.366 340.735Q660.403 341.249 660.493 341.756Q660.583 342.263 660.725 342.758Q660.867 343.253 661.059 343.731Q661.252 344.209 661.493 344.664C663.642 348.731 667.572 350.508 671.761 351.726C673.237 359.964 675.988 366.189 680.718 373.057C682.338 374.451 683.904 375.872 685.717 377.014C687.421 378.058 689.221 379.043 690.749 380.336Q689.953 386.32 688.388 392.15C680.021 399.543 674.511 409.835 667.575 418.554L661.351 429.458C655.889 439.38 649.867 449.31 644.958 459.506C643.041 463.229 641.216 467.049 638.904 470.546C635.168 469.084 584.166 469.953 574.147 469.946L379.959 470.039C378.986 470.043 378.136 469.958 377.254 470.445C377.063 470.55 376.901 470.703 376.742 470.852C376.111 467.023 375.776 463.132 375.357 459.274C372.229 436.83 362.71 418.484 343.148 406.149C338.638 403.306 332.026 401.357 328.419 397.499C324.736 393.56 326.476 382.656 326.616 377.559C326.898 377.604 327.181 377.644 327.462 377.694C328.495 377.875 329.521 378.122 330.573 378.183C333.993 378.38 337.98 376.683 340.493 374.426C348.106 367.59 346.625 357.269 347.215 348.118L362.735 347.95C362.804 345.673 362.739 343.32 362.482 341.056Q362.369 340.002 362.204 338.954Q362.039 337.907 361.823 336.869Q361.607 335.83 361.339 334.804Q361.072 333.778 360.754 332.767Q360.436 331.755 360.068 330.76Q359.701 329.766 359.285 328.79Q358.869 327.815 358.405 326.862Q357.941 325.908 357.43 324.979Q356.92 324.049 356.364 323.146Q355.809 322.243 355.209 321.368Q354.609 320.494 353.967 319.65Q353.325 318.806 352.642 317.995Q351.958 317.184 351.236 316.408Q350.514 315.632 349.754 314.892Q348.994 314.152 348.199 313.451Q347.403 312.75 346.574 312.089C335.124 302.973 323.547 302.458 309.546 304.001Z"/>
	<path fill="#8ABAE7" d="M547.322 287.252L636.477 287.457L667.838 287.452C672.948 287.454 678.318 287.118 683.403 287.519C685.19 287.66 687.232 287.942 688.644 289.162C689.672 290.049 690.029 291.288 690.01 292.599C689.985 294.309 689.426 296.193 688.084 297.332C687.014 298.241 685.42 298.322 684.085 298.42C679.033 298.79 673.717 298.4 668.643 298.373L637.627 298.214L546.058 298.092L515.013 298.019C510.827 298.028 506.605 298.418 502.425 298.225C500.864 298.153 498.884 298.006 497.488 297.209C496.361 296.565 495.447 295.672 495.119 294.376C494.712 292.773 495.082 290.934 496.181 289.69C497.341 288.377 499.279 287.826 500.947 287.569C505.817 286.816 511.235 287.507 516.172 287.495L547.322 287.252Z"/>
	<path fill="#8ABAE7" d="M498.603 247.643C533.516 246.986 568.529 247.602 603.452 247.683C629.683 247.743 656.018 247.102 682.235 247.636C684.907 247.69 686.672 247.551 688.516 249.698C689.593 250.952 690.073 252.844 689.683 254.45C689.22 256.363 688.026 257.29 686.381 258.165C685.752 258.236 685.138 258.301 684.506 258.33C673.262 258.833 661.849 258.452 650.59 258.445L588.564 258.435L532.089 258.476C522.29 258.483 512.306 258.878 502.525 258.347C500.346 258.229 497.837 258.423 496.27 256.72C495.368 255.739 494.874 254.315 494.985 252.993C495.187 250.587 496.761 248.987 498.603 247.643Z"/>
	<path fill="#8ABAE7" d="M499.773 206.639L620.324 206.537L658.267 206.573C665.662 206.546 673.193 206.222 680.576 206.552C682.423 206.634 684.339 206.934 686.077 207.582C687.521 208.122 688.938 208.981 689.472 210.52C690.008 212.062 689.634 213.884 688.722 215.205C687.557 216.892 685.838 217.293 683.952 217.662L554.866 217.764L516.738 217.829C511.403 217.837 505.036 218.519 499.818 217.644C498.133 217.361 496.095 216.434 495.239 214.861C494.485 213.476 494.313 212.062 494.896 210.575C495.788 208.299 497.639 207.495 499.773 206.639Z"/>
	<path fill="#8ABAE7" d="M375.357 459.274L555.729 459.174C585.428 459.273 615.278 460.23 644.958 459.506C643.041 463.229 641.216 467.049 638.904 470.546C635.168 469.084 584.166 469.953 574.147 469.946L379.959 470.039C378.986 470.043 378.136 469.958 377.254 470.445C377.063 470.55 376.901 470.703 376.742 470.852C376.111 467.023 375.776 463.132 375.357 459.274Z"/>
	<path fill="#8ABAE7" d="M661.351 429.458C653.606 428.769 645.606 429.109 637.83 429.103L599.078 429.083L447.969 428.84L404.041 428.903C396.582 428.952 388.813 429.568 381.39 429.047C379.718 428.93 377.606 428.617 376.183 427.65C375.007 426.85 374.523 425.796 374.357 424.408C374.183 422.954 374.602 420.584 375.78 419.606C377.326 418.323 380.802 418.314 382.74 418.266C407.187 417.659 431.851 418.468 456.322 418.457L667.575 418.554L661.351 429.458Z"/>
	<path fill="#8ABAE7" d="M680.718 373.057C682.338 374.451 683.904 375.872 685.717 377.014C685.643 379.951 685.637 383.241 683.598 385.601C681.883 387.587 679.759 387.631 677.311 387.754C662.662 388.49 647.676 387.864 632.991 387.83L547.391 387.644L425.728 387.996C418.304 388.019 381.328 388.99 377.105 387.555C376.28 387.274 375.339 386.81 374.744 386.154C373.742 385.05 373.342 383.878 373.386 382.403C373.445 380.422 374.414 378.946 376.216 378.127C380.034 376.392 401.233 377.491 406.834 377.483L583.849 377.441L641.069 377.365C651.556 377.355 662.54 378.008 672.962 376.915C676.086 376.587 677.909 375.562 680.247 373.483L680.718 373.057Z"/>
	<path fill="#8ABAE7" d="M419.479 197.692C430.906 197.038 443.399 201.034 452.29 208.229C463.027 216.917 469.656 228.966 471.05 242.706C472.292 254.944 468.874 267.34 460.957 276.826C451.904 287.675 440.018 293.853 426.058 295.131C413.929 295.521 401.938 292.607 392.31 284.91C382.336 276.936 375.217 264.171 373.931 251.454Q373.807 250.236 373.744 249.013Q373.681 247.79 373.678 246.565Q373.675 245.341 373.733 244.118Q373.791 242.895 373.909 241.676Q374.027 240.457 374.205 239.246Q374.384 238.034 374.622 236.833Q374.86 235.632 375.157 234.444Q375.454 233.256 375.809 232.084Q376.164 230.912 376.577 229.759Q376.99 228.607 377.46 227.476Q377.929 226.345 378.454 225.238Q378.978 224.132 379.557 223.053Q380.136 221.974 380.767 220.924Q381.399 219.875 382.081 218.858Q382.764 217.842 383.496 216.86Q384.227 215.878 385.007 214.934C394.173 203.972 405.482 199.036 419.479 197.692Z"/>
	<path fill="#FEFEFE" d="M420.351 211.518C422.117 211.449 423.794 211.533 425.497 212.057Q426.116 212.246 426.712 212.498Q427.308 212.749 427.875 213.06Q428.442 213.372 428.974 213.74Q429.507 214.107 429.998 214.528Q430.49 214.948 430.936 215.417Q431.382 215.886 431.778 216.398Q432.173 216.91 432.514 217.459Q432.855 218.009 433.138 218.591Q433.441 219.215 433.678 219.868Q433.915 220.52 434.084 221.194Q434.252 221.867 434.35 222.554Q434.448 223.241 434.474 223.935Q434.501 224.629 434.455 225.321Q434.41 226.014 434.293 226.698Q434.176 227.382 433.989 228.051Q433.802 228.719 433.547 229.365C431.945 233.33 429.148 235.13 425.326 236.653C422.798 237.018 420.401 237.038 417.981 236.097Q417.391 235.872 416.829 235.587Q416.266 235.301 415.737 234.958Q415.208 234.614 414.718 234.217Q414.228 233.82 413.782 233.373Q413.337 232.926 412.941 232.435Q412.545 231.943 412.204 231.413Q411.862 230.882 411.578 230.319Q411.295 229.755 411.072 229.165C409.752 225.701 409.921 221.55 411.583 218.23C413.503 214.397 416.412 212.783 420.351 211.518Z"/>
	<path fill="#FEFEFE" d="M418.011 245.17C424.527 244.566 431.873 245.386 437.83 248.205C444.199 251.219 448.63 256.589 450.925 263.182C452.015 266.314 453.377 270.935 451.42 273.958C450.671 275.115 450.057 275.3 448.838 275.693C443.156 274.716 440.643 265.85 437.225 261.698C437.889 267.755 438.085 273.708 438.063 279.793C434.249 279.933 430.416 279.898 426.6 279.937L406.722 279.501C406.86 273.35 406.963 267.216 407.515 261.085C404.32 264.784 401.122 272.65 396.954 274.839C395.772 275.459 394.985 275.221 393.825 274.785C393.192 273.985 392.775 273.339 392.604 272.329C391.735 267.178 395.087 260.074 398.164 256.034C403.122 249.524 410.038 246.215 418.011 245.17Z"/>
</svg>
